PathFileType	4	(X/Y/Z)	H:\MAC\Pilotos\Biomecanica2_gait_2020\Trimmed_walk3.trc
DataRate	CameraRate	NumFrames	NumMarkers	Units	OrigDataRate	OrigDataStartFrame	OrigNumFrames
150.00	150.00	       4	28	mm	150.00	157	       251
Frame#	Time	R.ASIS			L.ASIS			R.PSIS			L.PSIS			L.Iliac.Crest			R.Iliac.Crest			R.GTR			R.Knee			R.HF			R.TT			R.Ankle			R.Heel			R.MT1			R.MT5			L.GTR			L.Knee			L.HF			L.TT			L.Ankle			L.Heel			L.MT1			L.MT5			R.Knee.Medial			R.Ankle.Medial			R.MT2			L.Knee.Medial			L.Ankle.Medial			L.MT2			V_Mid_ASIS			V_Mid_PSIS			V_Pelvis_Origin			V_R.Hip_JC			V_R.Knee_JC_Static			V_R.TT			V_R.Ankle_JC_Static			V_L.Hip_JC			V_Mid_Hip			V_R.MT2_Static			V_R.Knee.Medial			V_R.Ankle.Medial			V_R.TT			V_L.Knee_JC_Static			V_L.TT			V_L.Ankle_JC_Static			V_L.MT2_Static			V_R.Knee_JC			V_R.Ankle_JC			V_L.Knee_JC			V_L.Ankle_JC			V_R.TT_KJC_Static			V_L.TT_KJC_Static			V_R.TT_KJC			V_L.TT_KJC			V_R.MT2			V_L.MT2			
		X1	Y1	Z1	X2	Y2	Z2	X3	Y3	Z3	X4	Y4	Z4	X5	Y5	Z5	X6	Y6	Z6	X7	Y7	Z7	X8	Y8	Z8	X9	Y9	Z9	X10	Y10	Z10	X11	Y11	Z11	X12	Y12	Z12	X13	Y13	Z13	X14	Y14	Z14	X15	Y15	Z15	X16	Y16	Z16	X17	Y17	Z17	X18	Y18	Z18	X19	Y19	Z19	X20	Y20	Z20	X21	Y21	Z21	X22	Y22	Z22	X23	Y23	Z23	X24	Y24	Z24	X25	Y25	Z25	X26	Y26	Z26	X27	Y27	Z27	X28	Y28	Z28	X29	Y29	Z29	X30	Y30	Z30	X31	Y31	Z31	X32	Y32	Z32	X33	Y33	Z33	X34	Y34	Z34	X35	Y35	Z35	X36	Y36	Z36	X37	Y37	Z37	X38	Y38	Z38	X39	Y39	Z39	X40	Y40	Z40	X41	Y41	Z41	X42	Y42	Z42	X43	Y43	Z43	X44	Y44	Z44	X45	Y45	Z45	X46	Y46	Z46	X47	Y47	Z47	X48	Y48	Z48	X49	Y49	Z49	X50	Y50	Z50	X51	Y51	Z51	X52	Y52	Z52	X53	Y53	Z53	X54	Y54	Z54	X55	Y55	Z55	

157	1.040	1234.87048	953.61237	-194.18391	1220.32031	950.39008	-450.21158	1030.35083	942.18243	-263.49081	1022.32318	953.78754	-344.32733	1137.38000	1002.53107	-483.95764	1158.35559	1007.59448	-142.26750	1172.10156	849.53137	-123.21095	1251.49963	479.05197	-170.59602	1274.37915	425.13724	-170.69579	1340.74023	436.32449	-210.85594	1404.93188	77.94373	-209.70583	1380.79248	32.01039	-268.38339	1562.55615	123.32955	-242.43120	1531.38464	81.31084	-173.96167	1119.65344	862.07996	-501.92450	1010.52429	488.70035	-449.78494	996.15118	433.95032	-451.39111	1055.83801	402.35550	-404.89719	866.76953	102.10348	-385.07205	815.23175	80.99532	-330.86221	1015.59351	38.42192	-359.15164	980.26727	32.90157	-401.95450	1279.95251	475.67560	-309.18762	1427.28528	120.80872	-288.64645	1559.08740	111.94171	-207.31749	1039.18726	482.88580	-316.33115	898.83160	117.42102	-303.27841	1016.39093	42.22755	-324.88535																																																																																		
158	1.047	1243.28857	952.90509	-193.96320	1228.42944	949.65717	-450.03131	1038.60156	940.98395	-262.91083	1030.44373	952.70807	-343.73935	1145.38892	1001.81122	-483.50089	1166.66821	1006.63605	-141.92828	1180.99719	848.73132	-123.12347	1261.57520	478.62491	-171.05069	1284.03174	424.42151	-171.29840	1349.96765	435.45593	-211.72935	1411.98743	76.75101	-211.76588	1387.50769	30.84107	-270.19775	1569.86084	121.50839	-245.33308	1539.02734	79.46125	-176.84444	1127.50623	861.40808	-501.61404	1017.48260	488.53818	-450.00949	1002.68781	433.92886	-451.75421	1062.39368	401.30392	-405.10913	868.01367	104.02736	-385.78470	816.12268	83.93694	-331.50021	1015.73041	38.30518	-359.20670	980.56232	33.04264	-401.75327	1289.27441	475.42499	-309.70633	1434.38135	119.48272	-290.67432	1566.49451	110.15800	-210.02011	1046.61414	482.20676	-316.75089	900.22260	119.06051	-303.79742	1016.56860	42.18888	-324.99258																																																																																		
159	1.053	1251.80920	952.50769	-193.69427	1236.64392	948.96808	-449.85941	1046.95605	939.81744	-262.36258	1038.59900	951.64691	-343.10962	1153.52893	1001.09296	-483.01636	1174.85925	1005.77576	-141.49934	1190.09607	848.13629	-123.03555	1272.19592	478.36340	-171.51657	1293.99097	423.81293	-171.87074	1359.30408	434.39188	-212.59068	1418.03699	74.97832	-213.59262	1392.61523	29.28953	-271.78589	1575.69153	118.70893	-248.51408	1545.28723	76.83890	-179.83282	1135.51514	860.73199	-501.23230	1024.85913	488.28665	-450.31451	1009.73273	433.53204	-451.62085	1068.82837	400.44089	-405.60635	869.51465	106.18165	-386.36295	817.01733	87.19169	-332.06686	1015.95892	38.06803	-359.17160	980.62494	33.08111	-401.96265	1299.14893	475.00653	-310.09613	1440.02417	117.50677	-292.71585	1572.26538	107.14674	-212.96690	1054.53418	481.39258	-317.27274	901.75958	120.82604	-304.38177	1016.77264	42.17003	-325.18057																																																																																		
160	1.060	1260.34351	952.17303	-193.32045	1244.88269	948.32611	-449.65317	1055.44800	938.92181	-261.93231	1046.94031	950.58594	-342.50101	1161.66992	1000.48132	-482.57407	1183.23975	1004.99231	-141.00223	1199.21521	847.65125	-122.84605	1283.04431	478.36356	-171.83171	1304.12427	423.38730	-172.45955	1368.79077	433.37363	-213.71861	1422.79517	72.98750	-215.40202	1396.26379	27.39919	-273.17892	1580.66211	115.28790	-251.85498	1550.30334	73.70154	-182.97156	1143.56262	860.04468	-500.84613	1032.58679	488.01492	-450.63733	1016.54901	433.85620	-452.77490	1075.31323	399.70816	-405.78323	871.34137	108.59442	-386.94223	818.15881	90.65588	-332.92859	1016.13684	37.94586	-359.21844	980.65387	33.02774	-402.20035	1309.48425	474.57883	-310.39322	1444.37195	115.06619	-294.76816	1576.73584	103.74436	-216.40125	1062.56799	480.63223	-317.84210	903.41913	122.74028	-305.06845	1017.15387	42.14988	-325.46237																																																																																		
